<svg xmlns="http://www.w3.org/2000/svg" xmlns:xlink="http://www.w3.org/1999/xlink" class="ct-chart" width="1200" height="150" viewBox="0 0 1200 150">
<style type="text/css">
        <![CDATA[
        .ct-chart .ct-grid {
            stroke: rgba(0,0,0,.2);
            stroke-width: 1px;
            stroke-dasharray: 2px;
        }

        .ct-label {
            fill: rgba(0, 0, 0, 0.4);
            color: rgba(0, 0, 0, 0.4);
            font-size: 12px;
            font-family: sans-serif;
            text-anchor: end;
        }

        .ct-chart .ct-series.ct-series-a .ct-line, .ct-chart .ct-series.ct-series-a .ct-point {
            stroke: #c00;
        }

        .ct-chart .ct-series.ct-series-b .ct-line, .ct-chart .ct-series.ct-series-b .ct-point {
            stroke: #1c2298;
        }

        .ct-chart .ct-series.ct-series-c .ct-line, .ct-chart .ct-series.ct-series-c .ct-point {
            stroke: #0aad0a;
        }

        .ct-chart .ct-line {
            fill: none;
            stroke-width: 2px;
        }

        .ct-chart .ct-point {
            stroke-width: 6px;
            stroke-linecap: round;
            transition: stroke-width .2s;
        }
        ]]>
</style>
<title>Coverage history</title>
<defs>
</defs>
<g>
    <line x1="50" x2="50" y1="15" y2="115" class="ct-grid"></line>
    <line x1="1190" x2="1190" y1="15" y2="115" class="ct-grid"></line>
    <line y1="115" y2="115" x1="50" x2="1190" class="ct-grid"></line>
    <line y1="90" y2="90" x1="50" x2="1190" class="ct-grid"></line>
    <line y1="65" y2="65" x1="50" x2="1190" class="ct-grid"></line>
    <line y1="40" y2="40" x1="50" x2="1190" class="ct-grid"></line>
    <line y1="15" y2="15" x1="50" x2="1190" class="ct-grid"></line>
</g>
    
<g>
    <text x="45" y="113" class="ct-label">0</text>
    <text x="45" y="88" class="ct-label">25</text>
    <text x="45" y="63" class="ct-label">50</text>
    <text x="45" y="38" class="ct-label">75</text>
    <text x="45" y="13" class="ct-label">100</text>
</g><g class="ct-series ct-series-a">
<path d="M50.000,37.300L430.000,29.800L810.000,37.300L1190.000,37.300" class="ct-line"></path>
<line x1="50.000" y1="37.300" x2="50.010" y2="37.300" class="ct-point"></line><line x1="430.000" y1="29.800" x2="430.010" y2="29.800" class="ct-point"></line><line x1="810.000" y1="37.300" x2="810.010" y2="37.300" class="ct-point"></line><line x1="1190.000" y1="37.300" x2="1190.010" y2="37.300" class="ct-point"></line></g>
<g class="ct-series ct-series-b">
<path d="M50.000,41.700L430.000,41.700L810.000,41.700L1190.000,41.700" class="ct-line"></path>
<line x1="50.000" y1="41.700" x2="50.010" y2="41.700" class="ct-point"></line><line x1="430.000" y1="41.700" x2="430.010" y2="41.700" class="ct-point"></line><line x1="810.000" y1="41.700" x2="810.010" y2="41.700" class="ct-point"></line><line x1="1190.000" y1="41.700" x2="1190.010" y2="41.700" class="ct-point"></line></g>
</svg>
